<?xml version="1.0" standalone="no"?>
<!DOCTYPE svg PUBLIC "-//W3C//DTD SVG 1.1//EN" "http://www.w3.org/Graphics/SVG/1.1/DTD/svg11.dtd" >
<svg xmlns="http://www.w3.org/2000/svg">
<metadata>
This is a custom SVG webfont generated by Font Squirrel.
Copyright   : c 19992010 Ray Larabie See attached license agreement for more information If EULA is missing visit wwwlarabiefontscom for an updated version of this font
Designer    : Ray Larabie
Foundry     : Ray Larabie
Foundry URL : httpwwwlarabiefontscom
</metadata>
<defs>
<font id="LibelSuitRegular" horiz-adv-x="714" >
<font-face units-per-em="2048" ascent="1638" descent="-410" />
<missing-glyph horiz-adv-x="389" />
<glyph unicode=" "  horiz-adv-x="389" />
<glyph unicode="&#x09;" horiz-adv-x="389" />
<glyph unicode="&#xa0;" horiz-adv-x="389" />
<glyph unicode="!" horiz-adv-x="311" d="M43 1636h221l-80 -1138h-61zM61 109q0 47 22.5 84.5t70.5 37.5q47 0 69.5 -35.5t22.5 -86.5q0 -49 -22.5 -85t-69.5 -36t-70 38t-23 83z" />
<glyph unicode="&#x22;" horiz-adv-x="477" d="M37 1663h164l-56 -530h-55zM272 1663h166l-53 -530h-55z" />
<glyph unicode="#" horiz-adv-x="804" d="M18 786l31 113h135l64 236h-133l30 112h136l106 389h111l-107 -389h135l107 389h110l-106 -389h154l-31 -112h-152l-67 -236h153l-30 -113h-152l-106 -391h-115l106 391h-131l-106 -391h-115l107 391h-134zM295 899h135l64 236h-132z" />
<glyph unicode="$" horiz-adv-x="690" d="M25 627v88l184 -41v-47q0 -100 96 -131v342q-86 43 -141 80.5t-86 80.5t-42 94.5t-11 118.5q0 63 21.5 117.5t60 96.5t89 69t109.5 35v106h70v-104q59 -8 111.5 -36t91 -70t61.5 -96t23 -118v-88l-185 41v47q0 104 -102 134v-347q92 -49 148.5 -88t87 -79.5t41 -89 t10.5 -115.5q0 -61 -23 -116.5t-61.5 -98.5t-91 -71t-111.5 -34v-108h-70v110q-59 6 -110.5 34t-89 71t-59 97.5t-21.5 115.5zM209 1212q0 -106 96 -172v303q-96 -29 -96 -131zM375 496q102 23 102 131q0 106 -102 172v-303z" />
<glyph unicode="%" horiz-adv-x="1083" d="M27 1200v230q0 47 19.5 90t51 74.5t74.5 50t92 18.5t91 -18.5t74 -50t50.5 -74.5t18.5 -90v-230q0 -49 -18.5 -92t-50.5 -75t-74 -50t-91 -18t-92 18t-74.5 50t-51 75t-19.5 92zM164 1200q0 -41 29.5 -70.5t70.5 -29.5t69.5 29.5t28.5 70.5v230q0 41 -28.5 70.5 t-69.5 29.5t-70.5 -30t-29.5 -70v-230zM217 2l543 1634h100l-536 -1634h-107zM586 205v231q0 49 18.5 92t49 75t73.5 50.5t92 18.5t92 -18.5t74 -50.5t49.5 -75t18.5 -92v-231q0 -49 -18.5 -92t-49.5 -74t-74 -49.5t-92 -18.5t-92 18.5t-73.5 49.5t-49 74t-18.5 92zM719 205 q0 -41 29.5 -71t70.5 -30t71 30t30 71v231q0 41 -30 71t-71 30t-70.5 -30t-29.5 -71v-231z" />
<glyph unicode="&#x26;" horiz-adv-x="782" d="M43 289v352q0 123 129 197q-129 63 -129 209v301q0 72 21.5 130t60.5 99t91 63.5t114 22.5q63 0 115.5 -23.5t91 -65.5t60 -100.5t21.5 -125.5v-54l-184 -61v115q0 63 -30.5 98t-73.5 35q-41 0 -72 -35t-31 -98v-283q0 -137 189 -137h18v92l162 61v-153h158v-185h-158 v-454q0 -63 27.5 -98t66.5 -35q35 0 64 30v-206q-18 -8 -70 -9q-106 0 -166 84q-90 -84 -203 -84q-55 0 -104 22.5t-86 64.5t-59.5 100.5t-22.5 130.5zM227 289q0 -63 31 -98t72 -35q43 0 73.5 34.5t30.5 98.5v454h-18q-188 0 -189 -155v-299z" />
<glyph unicode="'" horiz-adv-x="217" d="M25 1663h163l-53 -530h-55z" />
<glyph unicode="(" horiz-adv-x="362" d="M41 137v1364q0 61 21.5 116.5t60.5 98.5t91 71t112 34v-189q-100 -27 -101 -131v-1364q0 -104 101 -131v-188q-59 6 -111.5 33.5t-91.5 70.5t-60.5 98.5t-21.5 116.5z" />
<glyph unicode=")" horiz-adv-x="362" d="M35 6q100 27 100 131v1364q0 104 -100 131v189q59 -6 111.5 -34t90 -71t60 -98t22.5 -117v-1364q0 -61 -22.5 -116.5t-60 -98.5t-90 -70.5t-111.5 -33.5v188z" />
<glyph unicode="*" horiz-adv-x="722" d="M18 1040l287 168l-280 162l71 98l234 -200l-27 305h121l-31 -303l236 198l67 -98l-280 -162l289 -168l-70 -98l-242 203l31 -318h-121l27 320l-244 -205z" />
<glyph unicode="+" horiz-adv-x="688" d="M10 682v178h252v295h174v-295h236v-178h-236v-301h-174v301h-252z" />
<glyph unicode="," horiz-adv-x="249" d="M35 -362l45 530h164l-156 -530h-53z" />
<glyph unicode="-" horiz-adv-x="626" d="M47 739v162h528v-162h-528z" />
<glyph unicode="." horiz-adv-x="253" d="M35 109q0 47 22.5 84.5t69.5 37.5t69.5 -35.5t22.5 -86.5q0 -49 -22.5 -85t-69.5 -36t-69.5 38t-22.5 83z" />
<glyph unicode="/" horiz-adv-x="655" d="M4 -90l545 1816h102l-536 -1816h-111z" />
<glyph unicode="0" horiz-adv-x="724" d="M43 289v1054q0 63 25.5 122t68.5 102t101.5 68.5t123.5 25.5q66 0 124.5 -25.5t101.5 -68.5t67.5 -101.5t24.5 -122.5v-1054q0 -66 -24.5 -124.5t-67.5 -101.5t-101.5 -67.5t-124.5 -24.5t-124 24.5t-101 67.5t-68.5 101.5t-25.5 124.5zM227 289q0 -57 39 -95t96 -38 q53 0 93.5 37.5t40.5 95.5v1054q0 55 -40 94.5t-94 39.5q-57 0 -96 -39t-39 -95v-1054z" />
<glyph unicode="1" horiz-adv-x="374" d="M14 1368v152q127 0 127 116h185v-1636h-185v1368h-127z" />
<glyph unicode="2" horiz-adv-x="710" d="M41 0v322q0 72 18.5 139t67.5 157q20 39 62 108t89.5 142.5t89.5 143t64 110.5q37 72 49.5 121t12.5 103q0 55 -40 94t-94 39q-57 0 -96 -39t-39 -94v-50l-184 -41v91q0 66 21.5 124t62.5 101t100.5 67.5t134.5 24.5q72 0 130.5 -24.5t100.5 -67.5t64.5 -101.5 t22.5 -123.5q0 -33 -1 -63t-9.5 -63.5t-24.5 -76.5t-49 -103q-41 -76 -104.5 -178t-122 -205.5t-100.5 -193.5t-42 -141v-138h453v-184h-637z" />
<glyph unicode="3" horiz-adv-x="712" d="M35 289v82l184 -62v-20q0 -57 38 -95t95 -38q55 0 95 37.5t40 95.5v270q0 98 -46 144.5t-162 46.5v147q57 0 95 9t60.5 30.5t30.5 57.5t8 89v263q0 55 -32.5 94t-88.5 39q-57 0 -95 -39t-38 -94v-54h-184v54q0 76 24.5 135t67.5 100t101.5 61.5t123.5 20.5 q66 0 122 -24.5t97 -67.5t63.5 -101.5t22.5 -123.5v-277q0 -102 -50 -159.5t-113 -78.5q33 -8 64.5 -28.5t57 -53t41 -76.5t15.5 -100v-284q0 -72 -25.5 -130.5t-68.5 -100.5t-101.5 -64.5t-124.5 -22.5t-124 24.5t-101 67.5t-67.5 101.5t-24.5 124.5z" />
<glyph unicode="4" horiz-adv-x="724" d="M6 569l103 736h172l-74 -551h207v882h184v-882h98v-185h-98v-569h-184v569h-408z" />
<glyph unicode="5" d="M37 289v82l184 -62v-20q0 -57 39 -95t94 -38t95 37.5t40 95.5v669q0 27 -13 52.5t-34.5 45t-48 31t-53.5 11.5q-61 0 -94 -36t-41 -81l-166 45l47 610h588v-184h-434l-19 -238q25 27 63 44.5t103 17.5q70 0 124 -24.5t90 -67.5t54.5 -101.5t18.5 -124.5v-669 q0 -66 -25.5 -124.5t-68.5 -101.5t-101.5 -67.5t-124.5 -24.5t-124 24.5t-101 67.5t-67.5 101.5t-24.5 124.5z" />
<glyph unicode="6" horiz-adv-x="720" d="M43 289v1057q0 66 20.5 124t61.5 101t100.5 67.5t136.5 24.5q76 0 135.5 -24.5t100.5 -67.5t61.5 -101.5t20.5 -123.5v-54h-184v54q0 55 -40 94t-94 39q-57 0 -96 -39t-39 -94v-267q20 20 56 40t110 20q70 0 123 -26t90 -70t55.5 -102t18.5 -124v-528q0 -66 -24.5 -124.5 t-67.5 -101.5t-101.5 -67.5t-124.5 -24.5t-124 24.5t-101 67.5t-68.5 101.5t-25.5 124.5zM227 289q0 -57 39 -95t96 -38q53 0 93.5 37.5t40.5 95.5v528q0 57 -40 97t-94 40q-61 0 -98 -44t-37 -105v-516z" />
<glyph unicode="7" horiz-adv-x="632" d="M25 1452v184h591v-135l-335 -1501h-201l362 1452h-417z" />
<glyph unicode="8" horiz-adv-x="718" d="M41 289v338q0 86 41 147.5t90 81.5q-51 20 -84 79.5t-33 141.5v269q0 150 85 233.5t220 83.5q131 0 217.5 -84t86.5 -233v-269q0 -82 -32 -140t-87 -81q55 -23 94 -83t39 -146v-338q0 -66 -25.5 -124.5t-68.5 -101.5t-101.5 -67.5t-122.5 -24.5q-68 0 -126 24.5 t-101 67.5t-67.5 101.5t-24.5 124.5zM225 289q0 -57 39 -95t96 -38q53 0 93.5 37.5t40.5 95.5v350q0 61 -41 97t-97 36q-53 0 -92 -35t-39 -98v-350zM240 1063q0 -61 32.5 -97t89.5 -36q51 0 84 34.5t33 98.5v283q-2 55 -36.5 94t-82.5 39q-57 0 -88.5 -39t-31.5 -94v-283z " />
<glyph unicode="9" horiz-adv-x="722" d="M41 289v53h184v-53q0 -57 39 -95t96 -38q53 0 93.5 37.5t40.5 95.5v311q-18 -14 -61.5 -32.5t-108.5 -18.5q-53 0 -103.5 20.5t-90.5 61.5t-64.5 99t-24.5 136v480q0 66 24.5 124t67.5 101t101.5 67.5t125.5 24.5q63 0 122 -24.5t102 -67.5t68.5 -101.5t25.5 -123.5 v-1057q0 -74 -23.5 -132.5t-66.5 -100.5t-101.5 -63.5t-126.5 -21.5q-70 0 -128 21.5t-101 63.5t-66.5 100.5t-23.5 132.5zM225 866q0 -55 39 -94t96 -39q61 0 97.5 42t36.5 104v467q0 55 -40 94t-94 39q-57 0 -96 -39t-39 -94v-480z" />
<glyph unicode=":" horiz-adv-x="268" d="M41 109q0 47 22.5 84.5t69.5 37.5t69.5 -35.5t22.5 -86.5q0 -49 -22.5 -85t-69.5 -36t-69.5 38t-22.5 83zM41 725q0 47 22.5 85t69.5 38t69.5 -36t22.5 -87q0 -49 -22.5 -85t-69.5 -36t-69.5 38t-22.5 83z" />
<glyph unicode=";" horiz-adv-x="251" d="M29 117q0 45 27.5 79.5t68.5 34.5q92 0 92 -131q-2 -104 -46 -167.5t-124 -63.5v57q33 0 55.5 22.5t22.5 53.5h-2q-41 0 -67.5 34t-26.5 81zM41 725q0 47 22.5 85t69.5 38t69.5 -36t22.5 -87q0 -49 -22.5 -85t-69.5 -36t-69.5 38t-22.5 83z" />
<glyph unicode="&#x3c;" horiz-adv-x="481" d="M2 666v129l444 399v-215l-319 -248l319 -256v-211z" />
<glyph unicode="=" horiz-adv-x="481" d="M49 469v154h414v-154h-414zM49 852v160h414v-160h-414z" />
<glyph unicode="&#x3e;" horiz-adv-x="495" d="M49 264v211l320 256l-320 248v215l445 -399v-129z" />
<glyph unicode="?" horiz-adv-x="669" d="M16 1255v91q0 70 23.5 128t65.5 100t100.5 65.5t128.5 23.5q147 0 235 -82t88 -235q0 -92 -33.5 -169t-78.5 -150t-91 -144.5t-73 -153.5q-16 -47 -29.5 -117.5t-23.5 -132.5h-107q-4 33 -8 75t-4 71q-2 92 21.5 169.5t58.5 155.5q20 49 52 95.5t61.5 92.5t51 95 t21.5 104q0 68 -36 105t-103 37q-55 0 -95 -39t-40 -94v-50zM207 109q0 47 22.5 84.5t69.5 37.5t69.5 -35.5t22.5 -86.5q0 -49 -22.5 -85t-69.5 -36t-69.5 38t-22.5 83z" />
<glyph unicode="@" horiz-adv-x="1746" d="M35 602q0 227 59.5 422t174 336t283.5 222t388 81q184 0 330.5 -57.5t248 -167t154.5 -270t53 -367.5q0 -184 -38.5 -326.5t-103 -239t-146.5 -146.5t-170 -50q-94 0 -152.5 28.5t-95.5 73.5q-18 -23 -60 -52.5t-122 -29.5q-59 0 -107.5 26t-83.5 69t-54.5 100t-19.5 123 v424q0 66 17.5 124t49.5 101t79 68.5t106 25.5t100.5 -23.5t57.5 -47.5v61l166 61v-897q14 -68 98 -67q55 0 110.5 30.5t99.5 100.5t73 183.5t29 279.5q0 158 -48.5 284.5t-132.5 217t-196.5 138.5t-241.5 48q-162 0 -296 -65.5t-229.5 -182.5t-148.5 -279.5t-53 -359.5 q0 -178 45 -326.5t109.5 -260t137.5 -183.5t130 -96l-90 -166q-78 27 -167 103.5t-166 205.5t-127 309.5t-50 413.5zM739 377q0 -55 34 -94t87 -39q49 0 86 39t37 94v424q0 55 -37 95t-86 40q-53 0 -87 -40t-34 -95v-424z" />
<glyph unicode="A" horiz-adv-x="712" d="M23 0l251 1636h168l248 -1636h-186l-27 203h-233l-25 -203h-196zM266 375h189l-93 717z" />
<glyph unicode="B" horiz-adv-x="722" d="M47 0v1636h309q61 0 116.5 -28.5t98.5 -74.5t68 -104.5t25 -119.5v-228q0 -86 -37 -144t-101 -97q31 -12 58.5 -37t50 -57.5t36 -70.5t13.5 -77v-270q0 -61 -24.5 -121t-67.5 -106t-98.5 -73.5t-116.5 -27.5h-330zM231 184h109q76 0 118 50.5t42 125.5v215q0 37 -13.5 69 t-35 56.5t-51 39t-60.5 14.5h-109v-570zM231 926h95q29 0 57.5 14t52 39t37.5 57.5t14 67.5v172q0 76 -42 126t-119 50h-95v-526z" />
<glyph unicode="C" d="M43 289v1057q0 82 25.5 141t68.5 98t101.5 58.5t123.5 19.5q66 0 124.5 -22.5t101.5 -64.5t67.5 -100.5t24.5 -129.5v-54h-184v54q0 70 -40 101.5t-94 31.5q-57 0 -96 -32t-39 -101v-1057q0 -57 39 -95t96 -38q53 0 93.5 37.5t40.5 95.5v20l184 62v-82 q0 -76 -24.5 -135.5t-67.5 -99.5t-101.5 -61.5t-124.5 -21.5t-124 21.5t-101 62.5t-68.5 99.5t-25.5 134.5z" />
<glyph unicode="D" horiz-adv-x="731" d="M47 0v1636h320q66 0 124 -25.5t101 -68.5t67.5 -101.5t24.5 -123.5v-998q0 -68 -24.5 -126t-67.5 -101t-101.5 -67.5t-123.5 -24.5h-320zM231 184h136q55 0 94 39t39 96v998q0 57 -39 96t-94 39h-136v-1268z" />
<glyph unicode="E" horiz-adv-x="616" d="M47 0v1636h543v-184h-359v-518h207v-184h-207v-566h359v-184h-543z" />
<glyph unicode="F" horiz-adv-x="616" d="M47 0v1636h565v-184h-381v-571h242v-185h-242v-696h-184z" />
<glyph unicode="G" horiz-adv-x="739" d="M43 289v1057q0 76 25.5 134t68.5 99t101.5 62.5t123.5 21.5q66 0 124.5 -22.5t101.5 -63.5t67.5 -99.5t24.5 -131.5v-54h-184v54q0 72 -40 102.5t-94 30.5q-57 0 -96 -33t-39 -100v-1057q0 -57 43 -95t101 -38q55 0 98 37.5t43 95.5v444h-152v170h336v-903h-123l-20 70 q-66 -98 -182 -99q-66 0 -125.5 19.5t-104.5 59.5t-71.5 99.5t-26.5 139.5z" />
<glyph unicode="H" horiz-adv-x="735" d="M47 0v1636h184v-714h269v714h184v-1636h-184v737h-269v-737h-184z" />
<glyph unicode="I" horiz-adv-x="284" d="M47 0v1636h184v-1636h-184z" />
<glyph unicode="J" horiz-adv-x="690" d="M4 289v82l184 -62v-20q0 -57 39 -95t97 -38q53 0 93 30.5t40 102.5v1347h184v-1347q0 -72 -24.5 -130.5t-67.5 -100.5t-101.5 -64.5t-123.5 -22.5q-66 0 -124.5 24.5t-101.5 67.5t-68.5 101.5t-25.5 124.5z" />
<glyph unicode="K" horiz-adv-x="794" d="M47 0v1636h184v-555l308 555h219l-383 -657l383 -979h-217l-310 831v-831h-184z" />
<glyph unicode="L" horiz-adv-x="550" d="M47 0v1636h184v-1452h316v-184h-500z" />
<glyph unicode="M" horiz-adv-x="1021" d="M47 0v1636h225l248 -1210l271 1210h184v-1636h-170v922l-215 -922h-158l-213 922v-922h-172z" />
<glyph unicode="N" horiz-adv-x="735" d="M47 0v1636h184l281 -1009v1009h172v-1636h-164l-299 997v-997h-174z" />
<glyph unicode="O" horiz-adv-x="724" d="M43 289v1057q0 74 25.5 133t68.5 100t101.5 62.5t123.5 21.5q66 0 124.5 -21.5t101.5 -62.5t67.5 -99.5t24.5 -133.5v-1057q0 -72 -24.5 -130.5t-67.5 -99.5t-101.5 -64.5t-124.5 -23.5t-124 22.5t-101 64.5t-68.5 100.5t-25.5 130.5zM227 289q0 -57 39 -95t96 -38 q53 0 93.5 37.5t40.5 95.5v1057q0 55 -40 94t-94 39q-57 0 -96 -39t-39 -94v-1057z" />
<glyph unicode="P" horiz-adv-x="696" d="M47 0v1636h330q154 0 230.5 -87t76.5 -240v-299q0 -68 -18.5 -128.5t-56.5 -105.5t-95 -71.5t-137 -26.5h-146v-678h-184zM231 862h109q76 0 118 39t42 139v236q0 98 -37 137t-123 39h-109v-590z" />
<glyph unicode="Q" horiz-adv-x="774" d="M39 289v1057q0 66 25.5 124t68.5 101t100.5 67.5t122.5 24.5q68 0 126.5 -24.5t101.5 -67.5t67.5 -101.5t24.5 -123.5v-1057q0 -100 -60 -185l123 -124l-123 -121l-133 137q-61 -25 -127 -25t-123 24.5t-100 67.5t-68.5 101.5t-25.5 124.5zM223 289q0 -57 39 -95t94 -38 t95.5 37.5t40.5 95.5v1057q0 55 -40 94t-96 39q-55 0 -94 -39t-39 -94v-1057z" />
<glyph unicode="R" horiz-adv-x="729" d="M47 0v1636h320q59 0 114.5 -28.5t98.5 -74.5t68.5 -104.5t25.5 -119.5v-226q0 -80 -41 -140t-107 -83q66 -29 112 -95.5t46 -164.5v-600h-184v578q0 37 -13.5 68.5t-35 56t-51 39t-60.5 14.5h-109v-756h-184zM231 926h97q31 0 60.5 14t52 39t35.5 56.5t13 68.5v172 q0 76 -41.5 126t-119.5 50h-97v-526z" />
<glyph unicode="S" horiz-adv-x="720" d="M35 289v88l184 -41v-47q0 -57 43 -96t98 -39q72 0 108 44t36 111q0 92 -32 176t-81 162t-107.5 152.5t-111.5 148.5q-31 43 -56.5 84t-44 86t-27.5 96.5t-9 114.5q0 150 82 242t235 92q141 0 230.5 -79t89.5 -238v-91l-185 41v50q0 55 -39.5 94t-95.5 39 q-41 0 -67.5 -16.5t-42 -42t-20.5 -58.5t-5 -66q0 -51 21.5 -104t55.5 -105.5t73 -101.5t73 -94q45 -59 89 -121.5t79 -129.5t56.5 -138.5t21.5 -147.5q0 -74 -18.5 -143.5t-57.5 -122.5t-100 -85t-148 -32q-66 0 -125 24.5t-104 67.5t-71.5 100.5t-26.5 125.5z" />
<glyph unicode="T" horiz-adv-x="559" d="M0 1452v184h559v-184h-188v-1452h-185v1452h-186z" />
<glyph unicode="U" horiz-adv-x="731" d="M45 289v1347h184v-1347q0 -57 39 -95t97 -38q53 0 93 37.5t40 95.5v1347h184v-1347q0 -66 -24.5 -124.5t-67.5 -101.5t-101.5 -67.5t-123.5 -24.5q-66 0 -124.5 24.5t-101.5 67.5t-68.5 101.5t-25.5 124.5z" />
<glyph unicode="V" horiz-adv-x="636" d="M0 1636h211l119 -1095l119 1095h188l-236 -1636h-172z" />
<glyph unicode="W" horiz-adv-x="1032" d="M0 1636h211l98 -1024l140 1024h159l137 -1024l99 1024h188l-215 -1636h-170l-133 1020l-133 -1020h-172z" />
<glyph unicode="X" horiz-adv-x="792" d="M39 0l252 819l-244 817h211l143 -546l140 546h200l-243 -792l254 -844h-211l-150 586l-151 -586h-201z" />
<glyph unicode="Y" horiz-adv-x="731" d="M0 1636h209l153 -587l152 587h199l-264 -862v-774h-185v764z" />
<glyph unicode="Z" horiz-adv-x="712" d="M37 0v143l418 1295h-418v198h637v-143l-424 -1294h424v-199h-637z" />
<glyph unicode="[" horiz-adv-x="473" d="M168 -158v1878h299v-106h-188v-1661h188v-111h-299z" />
<glyph unicode="\" horiz-adv-x="655" d="M4 1726h102l545 -1816h-110z" />
<glyph unicode="]" horiz-adv-x="473" d="M20 -47h189v1661h-189v106h299v-1878h-299v111z" />
<glyph unicode="^" horiz-adv-x="651" d="M35 1110v207l291 289l288 -289v-207l-288 289z" />
<glyph unicode="_" horiz-adv-x="950" d="M47 -29h856v-127h-856v127z" />
<glyph unicode="`" horiz-adv-x="309" d="M-55 1569h155l125 -221h-86z" />
<glyph unicode="a" d="M29 283q0 100 24.5 176t64.5 135t90 104t101 84t97.5 72t78.5 68v63q0 55 -27.5 95t-82.5 40q-104 0 -131 -92l-158 107q14 31 41 61.5t63.5 54t82.5 39t102 15.5q66 0 120 -26t93 -69t60.5 -101t21.5 -124v-985h-123l-41 74q-23 -41 -69 -65.5t-126 -24.5 q-51 0 -101 20.5t-90 58t-65.5 93t-25.5 127.5zM213 303q0 -57 39 -96t96 -39q27 0 52.5 13.5t44 35t29.5 49t11 56.5v362q-35 -23 -82 -55.5t-89 -79.5t-71.5 -107.5t-29.5 -138.5z" />
<glyph unicode="b" horiz-adv-x="737" d="M41 0v1642l184 62v-463q12 25 59.5 44.5t108.5 19.5q66 0 122 -26t96 -69t62.5 -101t22.5 -124v-676q0 -66 -22.5 -124t-62.5 -101t-95 -67.5t-121 -24.5q-72 0 -122 22.5t-68 46.5l-41 -61h-123zM225 309q0 -57 43 -95t101 -38q55 0 99 38t44 95v676q0 55 -44 95t-99 40 q-57 0 -100.5 -40t-43.5 -95v-676z" />
<glyph unicode="c" horiz-adv-x="712" d="M41 289v696q0 86 24.5 146.5t67.5 99.5t101.5 56.5t125.5 17.5q63 0 122 -20.5t102 -60.5t68.5 -99.5t25.5 -139.5v-55h-184v55q0 55 -40 95t-94 40q-57 0 -96 -40t-39 -95v-696q0 -57 39 -95t96 -38q53 0 93.5 37.5t40.5 95.5v20l184 62v-82q0 -76 -25.5 -134.5 t-68.5 -99.5t-101.5 -62.5t-122.5 -21.5q-68 0 -126 22.5t-101 63.5t-67.5 100.5t-24.5 131.5z" />
<glyph unicode="d" horiz-adv-x="710" d="M23 309v676q0 66 18 124t54 101t88.5 69t119.5 26q66 0 111 -24t61 -48v409l184 62v-1704h-122l-41 61q-10 -23 -59.5 -46t-121.5 -23q-66 0 -119 24.5t-91.5 67.5t-60 101t-21.5 124zM207 309q0 -57 39 -95t96 -38q53 0 93 38t40 95v676q0 55 -40 95t-93 40 q-57 0 -96 -40t-39 -95v-676z" />
<glyph unicode="e" d="M41 289v696q0 66 24.5 124t67.5 101t101.5 69t125.5 26q63 0 122 -24t102 -69t68.5 -109.5t25.5 -144.5q0 -129 -25.5 -217t-81 -154.5t-141.5 -120.5t-205 -116v-61q0 -57 35 -95t92 -38q55 0 91 37.5t36 95.5v20l185 62v-82q0 -66 -24 -124.5t-66 -101.5t-99 -67.5 t-123 -24.5t-123 24.5t-99 67.5t-65.5 101.5t-23.5 124.5zM225 561q84 41 136.5 84t82 90t40 99.5t10.5 113.5q0 96 -40 134t-94 38q-57 0 -96 -40t-39 -95v-424z" />
<glyph unicode="f" horiz-adv-x="573" d="M25 1114v162h81v110q0 66 26 124.5t69 101.5t101 67.5t124 24.5q76 0 147 -31l-73 -176q-29 23 -74 23q-57 0 -96 -39t-39 -95v-110h135v-162h-135v-1114h-185v1114h-81z" />
<glyph unicode="g" horiz-adv-x="864" d="M33 -102q0 92 56 157.5t155 89.5q-33 12 -47.5 37t-14.5 56t24.5 60.5t78.5 41.5q-168 88 -168 281v364q0 66 21.5 124t60.5 101t95 69t128 26t122 -15.5t72 -27.5h228l-90 -140v-501q0 -131 -69 -209t-228 -93q-72 -6 -93.5 -33.5t-21.5 -56.5q0 -18 13.5 -41.5 t45.5 -27.5h400l-103 -185h-348q-137 0 -137 -75q0 -76 137 -76h297l-100 -184h-197q-70 0 -128 18t-100 52t-65.5 81.5t-23.5 106.5zM301 621q0 -55 38 -94.5t95 -39.5q55 0 95 39t40 95v364q0 57 -40 96t-95 39q-57 0 -95 -39t-38 -96v-364z" />
<glyph unicode="h" horiz-adv-x="735" d="M41 0v1642l184 62v-451q18 20 58.5 36t101.5 16q63 0 120.5 -21.5t99.5 -63.5t66.5 -101.5t24.5 -133.5v-985h-184v985q0 55 -44 95t-99 40q-57 0 -100.5 -40t-43.5 -95v-985h-184z" />
<glyph unicode="i" horiz-adv-x="272" d="M41 0v1276h184v-1276h-184zM41 1591q0 43 27.5 78t68.5 35t67.5 -34t26.5 -79q-2 -49 -27.5 -82.5t-66.5 -33.5t-68.5 34.5t-27.5 81.5z" />
<glyph unicode="j" horiz-adv-x="323" d="M-172 -354l49 184q33 -27 80 -27q55 0 94 40t39 96v1337h184v-1337q0 -66 -25.5 -124.5t-68.5 -101.5t-101.5 -68.5t-121.5 -25.5q-78 0 -129 27zM90 1591q0 43 27.5 78t68.5 35t69 -34t28 -79q0 -49 -28 -82.5t-69 -33.5t-68.5 34.5t-27.5 81.5z" />
<glyph unicode="k" horiz-adv-x="718" d="M47 0v1642l184 62v-805l242 377h203l-305 -475l342 -801h-213l-269 682v-682h-184z" />
<glyph unicode="l" horiz-adv-x="284" d="M47 0v1642l184 62v-1704h-184z" />
<glyph unicode="m" horiz-adv-x="1130" d="M47 0v1276h123l41 -59q27 37 58.5 54t82.5 17q72 0 122 -30.5t95 -90.5q29 59 78 90t131 31q66 0 122 -25.5t97 -68.5t63.5 -101.5t22.5 -123.5v-969h-184v969q0 55 -32.5 95t-88.5 40q-57 0 -89 -40t-32 -95v-969h-184v969q0 55 -32.5 95t-88.5 40q-57 0 -89 -40 t-32 -95v-969h-184z" />
<glyph unicode="n" horiz-adv-x="751" d="M47 0v1276h123l41 -59q27 37 71 54t95 17q68 0 127 -25.5t103 -68.5t71 -101.5t27 -123.5v-969h-185v969q0 55 -44 95t-99 40t-100.5 -40t-45.5 -95v-969h-184z" />
<glyph unicode="o" horiz-adv-x="720" d="M41 289v696q0 66 24.5 124t67.5 101t101.5 69t125.5 26q63 0 122 -26t102 -69t68.5 -101t25.5 -124v-696q0 -66 -25.5 -124.5t-68.5 -101.5t-101.5 -67.5t-122.5 -24.5q-68 0 -126 24.5t-101 67.5t-67.5 101.5t-24.5 124.5zM225 289q0 -57 39 -95t96 -38q53 0 93.5 37.5 t40.5 95.5v696q0 55 -40 95t-94 40q-57 0 -96 -40t-39 -95v-696z" />
<glyph unicode="p" horiz-adv-x="710" d="M47 -356v1632h123l41 -59q18 31 67.5 51t88.5 20q66 0 124 -25.5t101 -68.5t67.5 -101.5t24.5 -123.5v-680q0 -66 -24.5 -124.5t-67.5 -101.5t-101.5 -67.5t-123.5 -24.5q-104 0 -136 70v-397h-184zM231 289q0 -57 39 -95t97 -38q55 0 94 37.5t39 95.5v680q0 55 -39 95 t-94 40q-57 0 -96.5 -40t-39.5 -95v-680z" />
<glyph unicode="q" horiz-adv-x="710" d="M23 289v680q0 66 25.5 124t68.5 101t101 68.5t124 25.5q39 0 86 -20.5t68 -50.5l41 59h122v-1632h-184v397q-33 -70 -133 -70q-66 0 -124 24.5t-101 67.5t-68.5 101.5t-25.5 124.5zM207 289q0 -57 39 -95t96 -38q53 0 93 37.5t40 95.5v680q0 55 -40 95t-93 40 q-57 0 -96 -40t-39 -95v-680z" />
<glyph unicode="r" horiz-adv-x="485" d="M47 0v1276h123l41 -80q16 33 55 62.5t101 29.5q72 0 108 -37l-63 -164q-29 16 -45 17q-57 0 -96.5 -40t-39.5 -95v-969h-184z" />
<glyph unicode="s" horiz-adv-x="716" d="M35 289v88l184 -41v-47q0 -59 41 -96t100 -37t98.5 35.5t39.5 97.5q0 47 -13.5 83t-35.5 64q-53 61 -122 112.5t-129.5 112t-102.5 136t-42 186.5q0 68 22.5 127t64.5 102t99.5 68t127.5 25q72 0 127 -25t93 -68t57.5 -101t19.5 -126v-88l-179 41v47q0 53 -34.5 94 t-90.5 41q-59 0 -91.5 -42t-32.5 -97q0 -63 33.5 -113.5t82.5 -96.5t108.5 -92t108.5 -98.5t83 -116t34 -142.5q0 -68 -19.5 -131.5t-60.5 -112.5t-103.5 -78t-148.5 -29q-70 0 -128 23.5t-101 64.5t-66.5 99.5t-23.5 130.5z" />
<glyph unicode="t" horiz-adv-x="638" d="M20 1114v162h117v233l185 62v-295h243v-162h-243v-827q0 -135 94 -135q29 0 51 13t33 32l127 -138q-35 -41 -91.5 -64.5t-111.5 -23.5q-137 0 -212 87t-75 229v827h-117z" />
<glyph unicode="u" horiz-adv-x="722" d="M45 309v967h184v-967q0 -57 37 -95t94 -38q53 0 91 38t38 95v967h185v-1276h-123l-41 61q-18 -25 -57 -47t-111 -22q-59 0 -112.5 21.5t-94.5 62.5t-65.5 99t-24.5 134z" />
<glyph unicode="v" horiz-adv-x="636" d="M0 1276h209l119 -801l118 801h191l-236 -1276h-172z" />
<glyph unicode="w" horiz-adv-x="1032" d="M0 1276h205l98 -805l139 805h158l139 -805l99 805h194l-225 -1276h-170l-123 760l-125 -760h-170z" />
<glyph unicode="x" horiz-adv-x="790" d="M39 0l260 668l-238 608h209l131 -395l129 395h197l-235 -623l260 -653h-213l-152 446l-149 -446h-199z" />
<glyph unicode="y" horiz-adv-x="712" d="M25 309v967h184v-967q0 -57 39 -95t96 -38q53 0 93 38t40 95v967h185v-1632h-185v417q-10 -25 -55 -47t-103 -22q-55 0 -108 21.5t-95 62.5t-66.5 99t-24.5 134z" />
<glyph unicode="z" horiz-adv-x="684" d="M45 0v143l387 938h-387v195h592v-143l-387 -936h387v-197h-592z" />
<glyph unicode="{" horiz-adv-x="507" d="M8 602v105h27q39 0 66.5 21.5t43 59t22.5 88t7 107.5v334q0 76 23.5 127t62.5 83t87 46t95 14h50v-96h-58q-78 0 -120 -59.5t-42 -139.5v-393q0 -113 -39.5 -172t-132.5 -74v-2q92 -16 132 -79.5t40 -161.5v-357q0 -57 9.5 -106t29 -84t52 -55.5t81.5 -20.5h48v-102h-46 q-49 0 -98 14t-87 49t-62.5 94.5t-24.5 149.5v336q0 129 -34 201.5t-105 72.5h-27z" />
<glyph unicode="|" horiz-adv-x="217" d="M49 -338v1931h113v-1931h-113z" />
<glyph unicode="}" horiz-adv-x="509" d="M16 -213h47q92 0 131 75t39 191v357q0 98 40 161.5t133 79.5v2q-92 14 -132.5 73.5t-40.5 172.5v393q0 80 -41.5 139.5t-117.5 59.5h-58v96h50q47 0 95 -14t86 -46t61.5 -83t23.5 -127v-334q0 -57 7 -107.5t22.5 -88t42 -59t67.5 -21.5h29v-105h-29q-70 0 -104.5 -72.5 t-34.5 -201.5v-336q0 -90 -24.5 -149.5t-63.5 -94.5t-88.5 -49t-98.5 -14h-41v102z" />
<glyph unicode="~" horiz-adv-x="677" d="M27 559v236q29 63 68.5 98t86.5 35q49 0 89 -19.5t75 -44t67.5 -44t69.5 -19.5q57 0 95 53t71 139v-235q-35 -78 -77 -106.5t-101 -28.5q-31 0 -66.5 19.5t-72.5 43t-74 43t-70 19.5q-53 0 -90.5 -57.5t-70.5 -131.5z" />
<glyph unicode="&#xa1;" horiz-adv-x="311" d="M264.003 2.09961h-220.987l79.9961 1137.93h60.9961zM246.004 1529.01q0 -46.9971 -22.499 -84.4951q-22.498 -37.498 -70.4951 -37.498q-46.9971 0 -69.4961 35.498t-22.499 86.4951q0 48.9971 22.499 84.9951q22.499 35.9971 69.4961 35.9971t69.9951 -37.9971 q22.999 -37.998 22.999 -82.9951z" />
<glyph unicode="&#xa2;" horiz-adv-x="669" d="M18 580v405q0 72 22.5 129t62.5 97t93.5 63.5t114.5 28.5v331h72v-336q55 -6 105.5 -30.5t87 -65.5t58 -96t21.5 -121v-55h-184v55q0 43 -24.5 78t-63.5 47v-657q39 14 63.5 48t24.5 79v20l184 62v-82q0 -59 -21.5 -112.5t-58 -95.5t-87 -71t-105.5 -37v-258h-72v256 q-61 4 -114.5 30.5t-93.5 70t-62.5 100t-22.5 117.5zM203 580q0 -49 30.5 -86t77.5 -45v669q-47 -10 -77.5 -48t-30.5 -85v-405z" />
<glyph unicode="&#xa3;" horiz-adv-x="776" d="M33 739v162h76v445q0 66 25.5 124t68.5 101t101 67.5t124 24.5t124 -24.5t101 -67.5t67.5 -101.5t24.5 -123.5v-54h-184v54q0 55 -39 94t-94 39q-57 0 -96 -39t-39 -94v-445h266v-162h-266v-555h436v-184h-620v739h-76z" />
<glyph unicode="&#xa5;" horiz-adv-x="612" d="M14 1636h224l77 -655l78 655h199l-184 -895h131v-159h-144v-582h-196v582h-156v159h150z" />
<glyph unicode="&#xa6;" horiz-adv-x="217" d="M49 -215v754h113v-754h-113zM49 1040v676h113v-676h-113z" />
<glyph unicode="&#xa7;" horiz-adv-x="612" d="M39 229v101h178v-82q0 -47 6 -76t16.5 -44t27 -20.5t34.5 -5.5t34.5 5.5t27 20.5t16.5 44t6 76q0 55 -11.5 92t-31.5 62.5t-49 44t-62 36.5q-80 33 -131 107t-51 217q0 121 28.5 182.5t72.5 93.5q-45 41 -73 103.5t-28 167.5q0 143 55.5 227t188.5 84q131 0 188.5 -71.5 t57.5 -219.5v-104h-170v86q0 92 -20.5 118.5t-55.5 26.5q-39 0 -56.5 -26.5t-17.5 -118.5q0 -76 25.5 -117t64.5 -67.5t83 -48t83 -58.5t64.5 -98.5t25.5 -167.5q0 -94 -24.5 -165t-71.5 -108q45 -47 70.5 -110.5t25.5 -163.5q0 -317 -264 -318q-262 0 -262 295zM227 782 q0 -92 23.5 -118.5t58.5 -26.5q39 0 57.5 26.5t18.5 118.5v37q0 47 -5 77t-15.5 45t-24.5 20.5t-33 5.5q-20 0 -34.5 -5.5t-24.5 -20.5t-15.5 -45t-5.5 -77v-37z" />
<glyph unicode="&#xa8;" horiz-adv-x="606" d="M43 1501q0 47 28.5 76t73.5 29q43 0 74 -29t31 -76q0 -43 -31 -73.5t-74 -30.5q-45 0 -73.5 30.5t-28.5 73.5zM356 1501q0 47 31 76t72 29q47 0 74.5 -29t27.5 -76q0 -43 -27.5 -73.5t-74.5 -30.5q-41 0 -72 30.5t-31 73.5z" />
<glyph unicode="&#xa9;" horiz-adv-x="1613" d="M33 819q0 174 61.5 327.5t166 268.5t245.5 181.5t301 66.5t301 -66.5t245.5 -181.5t166 -268.5t61.5 -327.5q0 -176 -61.5 -329.5t-166 -268.5t-245.5 -181.5t-301 -66.5t-301 66.5t-245.5 181.5t-166 268.5t-61.5 329.5zM125 815q0 -156 53 -292t146.5 -237.5 t218.5 -159.5t268 -58q141 0 266 58t218.5 159.5t147.5 237.5t54 292t-54 293t-147.5 239.5t-218.5 163t-266 60.5q-143 0 -268 -60.5t-218.5 -163t-146.5 -239.5t-53 -293zM410 805q0 113 26.5 210t76.5 168.5t122 111.5t162 40q215 0 321 -205l-147 -102q-72 111 -174 111 q-98 0 -156.5 -89t-58.5 -245q0 -74 16 -134.5t46 -103.5t69 -66.5t86 -23.5t93 26.5t79 67.5l139 -102q-104 -188 -313 -188q-84 0 -155 39.5t-123 110.5t-80.5 167t-28.5 207z" />
<glyph unicode="&#xaa;" horiz-adv-x="428" d="M16 989q0 88 32 147.5t76 101.5t91 72.5t76 61.5v39q0 33 -16.5 56.5t-49.5 23.5q-61 0 -80 -55l-94 63q18 37 63.5 70t110.5 33q78 0 127 -56.5t49 -134.5v-592h-73l-25 45q-14 -27 -42 -41t-75 -14q-31 0 -60.5 12.5t-54 36t-40 56t-15.5 75.5zM127 1001 q0 -35 23.5 -58t58.5 -23t58.5 28.5t23.5 63.5v217q-23 -12 -50.5 -32.5t-53 -48.5t-43 -65t-17.5 -82z" />
<glyph unicode="&#xab;" horiz-adv-x="757" d="M23 616v136l354 184v-141l-232 -107l232 -110v-136zM360 616v136l355 184v-141l-232 -107l232 -110v-136z" />
<glyph unicode="&#xae;" horiz-adv-x="1468" d="M35 1008q0 133 51 251.5t143.5 209t219 142.5t280.5 52q152 0 281 -50t223 -138.5t147.5 -208t53.5 -258.5q0 -129 -55.5 -247t-150.5 -209t-223 -144.5t-276 -53.5q-154 0 -280.5 53.5t-219 144.5t-143.5 209t-51 247zM141 1008q0 -104 40 -205t115 -178.5t183.5 -125.5 t243.5 -48q129 0 242.5 43t197.5 117.5t133.5 177t49.5 219.5q0 102 -47.5 201.5t-130.5 178t-196.5 127t-248.5 48.5t-243.5 -48.5t-183.5 -127t-115 -178t-40 -201.5zM510 641v711h254q98 0 159.5 -58.5t61.5 -169.5q0 -72 -28.5 -115.5t-90.5 -84.5l129 -283h-151 l-121 260h-72v-260h-141zM651 1047h115q76 0 76 77q0 84 -76 84h-115v-161z" />
<glyph unicode="&#xb0;" horiz-adv-x="600" d="M37 1403q0 129 57.5 203.5t204.5 74.5q145 0 203.5 -73.5t58.5 -204.5q0 -61 -13 -113.5t-44 -91.5t-81 -60.5t-124 -21.5q-76 0 -126 22.5t-81 61.5t-43 91.5t-12 111.5zM141 1403q0 -92 36 -142.5t122 -50.5q160 0 160 193q0 80 -37 135t-123 55t-122 -55t-36 -135z " />
<glyph unicode="&#xb1;" horiz-adv-x="862" d="M25 168v154h815v-154h-815zM119 682v178h229v252h174v-252h213v-178h-213v-256h-174v256h-229z" />
<glyph unicode="&#xb4;" horiz-adv-x="309" d="M82 1352l125 221h155l-194 -221h-86z" />
<glyph unicode="&#xb5;" horiz-adv-x="729" d="M49 -352v1628h191v-1024q0 -96 86 -96q80 0 80 98v1022h194v-1098q0 -51 68 -51v-127h-82q-82 0 -101 88q-41 -96 -131 -96q-72 0 -112 41v-385h-193z" />
<glyph unicode="&#xb6;" horiz-adv-x="937" d="M27 1397q0 104 74.5 171.5t240.5 67.5h561l-100 -192v-1694h-176v1706h-191v-1706h-176v1417q-55 4 -98 24.5t-74 53.5t-46 72t-15 80z" />
<glyph unicode="&#xb7;" horiz-adv-x="253" d="M35 783q0 47 22.5 84.5t69.5 37.5t69.5 -35.5t22.5 -86.5q0 -49 -22.5 -85t-69.5 -36t-69.5 38t-22.5 83z" />
<glyph unicode="&#xb8;" horiz-adv-x="280" d="M35 -274l22 75q14 -8 54 -8q66 0 65 31q0 18 -10 25.5t-39 7.5h-27q-4 0 -12 -1t-20 -3v163h73v-82q113 0 113 -102q0 -66 -34 -93.5t-105 -27.5q-60 1 -80 15z" />
<glyph unicode="&#xba;" horiz-adv-x="432" d="M25 993v418q0 39 14 74t40.5 60.5t61.5 41t76 15.5q39 0 73 -15.5t60.5 -41t42 -60.5t15.5 -74v-418q0 -41 -15.5 -74.5t-42 -60.5t-60.5 -41t-73 -14q-82 0 -137 55t-55 135zM135 993q0 -35 23.5 -57.5t58.5 -22.5q33 0 56.5 22.5t23.5 57.5v418q0 33 -23.5 56.5 t-56.5 23.5q-35 0 -58.5 -23.5t-23.5 -56.5v-418z" />
<glyph unicode="&#xbb;" horiz-adv-x="761" d="M47 442v140l234 110l-234 107v137l356 -176v-133zM385 442v140l231 110l-231 107v137l354 -176v-133z" />
<glyph unicode="&#xbf;" horiz-adv-x="669" d="M658.001 410.076v-90.9941q0 -69.9961 -23.499 -127.992q-23.498 -57.9961 -65.4951 -99.9941q-41.998 -41.9971 -100.494 -65.4961q-58.4971 -23.498 -128.492 -23.498q-146.991 0 -234.985 81.9951q-87.9951 81.9951 -87.9951 234.985q0 91.9941 33.498 168.99 q33.498 76.9951 78.4951 149.99q44.9971 72.9961 90.9941 144.491q45.998 71.4961 72.9961 153.491q15.999 46.9971 29.498 117.492q13.499 70.4961 23.498 132.492h106.994q4 -32.998 7.99902 -74.9951q4 -41.998 4 -70.9961q2 -91.9941 -21.499 -169.489 q-23.498 -77.4961 -58.4961 -155.491q-19.999 -48.9971 -51.9971 -95.4941t-61.4961 -92.4941t-50.9971 -94.9941q-21.498 -48.9971 -21.498 -103.993q0 -67.9961 35.9971 -104.994q35.998 -36.998 102.994 -36.998q54.9971 0 94.9941 38.998q39.998 38.998 39.998 93.9941 v49.9971zM467.013 1556.01q0 -46.9971 -22.499 -84.4951q-22.498 -37.498 -69.4951 -37.498t-69.4961 35.498t-22.499 86.4951q0 48.9971 22.499 84.9951q22.499 35.9971 69.4961 35.9971t69.4951 -37.9971q22.499 -37.998 22.499 -82.9951z" />
<glyph unicode="&#xc0;" horiz-adv-x="712" d="M23 0l251 1636h168l248 -1636h-186l-27 203h-233l-25 -203h-196zM266 375h189l-93 717zM154 1929h155l125 -221h-86z" />
<glyph unicode="&#xc1;" horiz-adv-x="712" d="M23 0l251 1636h168l248 -1636h-186l-27 203h-233l-25 -203h-196zM266 375h189l-93 717zM279 1712l125 221h155l-194 -221h-86z" />
<glyph unicode="&#xc2;" horiz-adv-x="712" d="M23 0l251 1636h168l248 -1636h-186l-27 203h-233l-25 -203h-196zM266 375h189l-93 717zM102 1732l184 219h136l188 -219h-143l-111 148l-113 -148h-141z" />
<glyph unicode="&#xc3;" horiz-adv-x="712" d="M23 0l251 1636h168l248 -1636h-186l-27 203h-233l-25 -203h-196zM266 375h189l-93 717zM78 1792q35 63 76.5 90.5t95.5 27.5q41 0 66.5 -9t47 -21.5t42 -21.5t51.5 -9q66 0 102 76l70 -82q-41 -109 -166 -109q-31 0 -55.5 10.5t-47 22.5t-45 22.5t-47.5 10.5 q-29 0 -55.5 -16.5t-54.5 -59.5z" />
<glyph unicode="&#xc4;" horiz-adv-x="712" d="M23 0l251 1636h168l248 -1636h-186l-27 203h-233l-25 -203h-196zM266 375h189l-93 717zM96 1861q0 47 28.5 76t73.5 29q43 0 74 -29t31 -76q0 -43 -31 -73.5t-74 -30.5q-45 0 -73.5 30.5t-28.5 73.5zM409 1861q0 47 31 76t72 29q47 0 74.5 -29t27.5 -76 q0 -43 -27.5 -73.5t-74.5 -30.5q-41 0 -72 30.5t-31 73.5z" />
<glyph unicode="&#xc5;" horiz-adv-x="712" d="M23 0l251 1636h168l248 -1636h-186l-27 203h-233l-25 -203h-196zM266 375h189l-93 717zM219 1882q0 61 39 103t96 42q59 0 99 -43t40 -102t-40 -97.5t-99 -38.5q-57 0 -96 38.5t-39 97.5zM268 1888q0 -41 26.5 -67.5t63.5 -26.5t64.5 26.5t27.5 67.5q0 37 -28.5 64.5 t-63.5 27.5t-62.5 -27.5t-27.5 -64.5z" />
<glyph unicode="&#xc6;" horiz-adv-x="925" d="M27 0l237 1636h623v-184h-240v-539h172v-184h-172v-543h240v-186h-424v203h-213l-23 -203h-200zM270 391h193v1061h-53z" />
<glyph unicode="&#xc7;" d="M43 289v1057q0 82 25.5 141t68.5 98t101.5 58.5t123.5 19.5q66 0 124.5 -22.5t101.5 -64.5t67.5 -100.5t24.5 -129.5v-54h-184v54q0 70 -40 101.5t-94 31.5q-57 0 -96 -32t-39 -101v-1057q0 -57 39 -95t96 -38q53 0 93.5 37.5t40.5 95.5v20l184 62v-82 q0 -72 -22.5 -128.5t-60.5 -96t-90 -63.5t-112 -28v-39q113 0 113 -102q0 -66 -34 -93.5t-105 -27.5q-59 0 -80 15l22 75q14 -8 54 -8q66 0 65 31q0 18 -10 25.5t-39 7.5h-27q-4 0 -12 -1t-20 -3v120q-59 6 -109.5 31t-88.5 65t-59.5 95t-21.5 125z" />
<glyph unicode="&#xc8;" horiz-adv-x="616" d="M47 0v1636h543v-184h-359v-518h207v-184h-207v-566h359v-184h-543zM107 1929h155l125 -221h-86z" />
<glyph unicode="&#xc9;" horiz-adv-x="616" d="M47 0v1636h543v-184h-359v-518h207v-184h-207v-566h359v-184h-543zM229 1712l125 221h155l-194 -221h-86z" />
<glyph unicode="&#xca;" horiz-adv-x="616" d="M47 0v1636h543v-184h-359v-518h207v-184h-207v-566h359v-184h-543zM53 1732l184 219h136l188 -219h-143l-111 148l-113 -148h-141z" />
<glyph unicode="&#xcb;" horiz-adv-x="616" d="M47 0v1636h543v-184h-359v-518h207v-184h-207v-566h359v-184h-543zM47 1861q0 47 28.5 76t73.5 29q43 0 74 -29t31 -76q0 -43 -31 -73.5t-74 -30.5q-45 0 -73.5 30.5t-28.5 73.5zM360 1861q0 47 31 76t72 29q47 0 74.5 -29t27.5 -76q0 -43 -27.5 -73.5t-74.5 -30.5 q-41 0 -72 30.5t-31 73.5z" />
<glyph unicode="&#xcc;" horiz-adv-x="284" d="M47 0v1636h184v-1636h-184zM-55 1929h155l125 -221h-86z" />
<glyph unicode="&#xcd;" horiz-adv-x="284" d="M47 0v1636h184v-1636h-184zM70 1712l125 221h155l-194 -221h-86z" />
<glyph unicode="&#xce;" horiz-adv-x="284" d="M47 0v1636h184v-1636h-184zM-105 1732l184 219h136l188 -219h-143l-111 148l-113 -148h-141z" />
<glyph unicode="&#xcf;" horiz-adv-x="284" d="M47 0v1636h184v-1636h-184zM-111 1861q0 47 28.5 76t73.5 29q43 0 74 -29t31 -76q0 -43 -31 -73.5t-74 -30.5q-45 0 -73.5 30.5t-28.5 73.5zM202 1861q0 47 31 76t72 29q47 0 74.5 -29t27.5 -76q0 -43 -27.5 -73.5t-74.5 -30.5q-41 0 -72 30.5t-31 73.5z" />
<glyph unicode="&#xd0;" horiz-adv-x="731" d="M-61 739v162h108v735h320q66 0 124 -25.5t101 -68.5t67.5 -101.5t24.5 -123.5v-998q0 -68 -24.5 -126t-67.5 -101t-101.5 -67.5t-123.5 -24.5h-320v739h-108zM231 184h136q55 0 94 39t39 96v998q0 57 -39 96t-94 39h-136v-551h136v-162h-136v-555z" />
<glyph unicode="&#xd1;" horiz-adv-x="735" d="M47 0v1636h184l281 -1009v1009h172v-1636h-164l-299 997v-997h-174zM90 1792q35 63 76.5 90.5t95.5 27.5q41 0 66.5 -9t47 -21.5t42 -21.5t51.5 -9q66 0 102 76l70 -82q-41 -109 -166 -109q-31 0 -55.5 10.5t-47 22.5t-45 22.5t-47.5 10.5q-29 0 -55.5 -16.5t-54.5 -59.5 z" />
<glyph unicode="&#xd2;" horiz-adv-x="724" d="M43 289v1057q0 74 25.5 133t68.5 100t101.5 62.5t123.5 21.5q66 0 124.5 -21.5t101.5 -62.5t67.5 -99.5t24.5 -133.5v-1057q0 -72 -24.5 -130.5t-67.5 -99.5t-101.5 -64.5t-124.5 -23.5t-124 22.5t-101 64.5t-68.5 100.5t-25.5 130.5zM227 289q0 -57 39 -95t96 -38 q53 0 93.5 37.5t40.5 95.5v1057q0 55 -40 94t-94 39q-57 0 -96 -39t-39 -94v-1057zM162 1929h155l125 -221h-86z" />
<glyph unicode="&#xd3;" horiz-adv-x="724" d="M43 289v1057q0 74 25.5 133t68.5 100t101.5 62.5t123.5 21.5q66 0 124.5 -21.5t101.5 -62.5t67.5 -99.5t24.5 -133.5v-1057q0 -72 -24.5 -130.5t-67.5 -99.5t-101.5 -64.5t-124.5 -23.5t-124 22.5t-101 64.5t-68.5 100.5t-25.5 130.5zM227 289q0 -57 39 -95t96 -38 q53 0 93.5 37.5t40.5 95.5v1057q0 55 -40 94t-94 39q-57 0 -96 -39t-39 -94v-1057zM285 1712l125 221h155l-194 -221h-86z" />
<glyph unicode="&#xd4;" horiz-adv-x="724" d="M43 289v1057q0 74 25.5 133t68.5 100t101.5 62.5t123.5 21.5q66 0 124.5 -21.5t101.5 -62.5t67.5 -99.5t24.5 -133.5v-1057q0 -72 -24.5 -130.5t-67.5 -99.5t-101.5 -64.5t-124.5 -23.5t-124 22.5t-101 64.5t-68.5 100.5t-25.5 130.5zM227 289q0 -57 39 -95t96 -38 q53 0 93.5 37.5t40.5 95.5v1057q0 55 -40 94t-94 39q-57 0 -96 -39t-39 -94v-1057zM108 1732l184 219h136l188 -219h-143l-111 148l-113 -148h-141z" />
<glyph unicode="&#xd5;" horiz-adv-x="724" d="M43 289v1057q0 74 25.5 133t68.5 100t101.5 62.5t123.5 21.5q66 0 124.5 -21.5t101.5 -62.5t67.5 -99.5t24.5 -133.5v-1057q0 -72 -24.5 -130.5t-67.5 -99.5t-101.5 -64.5t-124.5 -23.5t-124 22.5t-101 64.5t-68.5 100.5t-25.5 130.5zM227 289q0 -57 39 -95t96 -38 q53 0 93.5 37.5t40.5 95.5v1057q0 55 -40 94t-94 39q-57 0 -96 -39t-39 -94v-1057zM86 1792q35 63 76.5 90.5t95.5 27.5q41 0 66.5 -9t47 -21.5t42 -21.5t51.5 -9q66 0 102 76l70 -82q-41 -109 -166 -109q-31 0 -55.5 10.5t-47 22.5t-45 22.5t-47.5 10.5q-29 0 -55.5 -16.5 t-54.5 -59.5z" />
<glyph unicode="&#xd6;" horiz-adv-x="724" d="M43 289v1057q0 74 25.5 133t68.5 100t101.5 62.5t123.5 21.5q66 0 124.5 -21.5t101.5 -62.5t67.5 -99.5t24.5 -133.5v-1057q0 -72 -24.5 -130.5t-67.5 -99.5t-101.5 -64.5t-124.5 -23.5t-124 22.5t-101 64.5t-68.5 100.5t-25.5 130.5zM227 289q0 -57 39 -95t96 -38 q53 0 93.5 37.5t40.5 95.5v1057q0 55 -40 94t-94 39q-57 0 -96 -39t-39 -94v-1057zM102 1861q0 47 28.5 76t73.5 29q43 0 74 -29t31 -76q0 -43 -31 -73.5t-74 -30.5q-45 0 -73.5 30.5t-28.5 73.5zM415 1861q0 47 31 76t72 29q47 0 74.5 -29t27.5 -76q0 -43 -27.5 -73.5 t-74.5 -30.5q-41 0 -72 30.5t-31 73.5z" />
<glyph unicode="&#xd7;" horiz-adv-x="731" d="M35 557l213 213l-213 209l123 123l213 -205l196 205l127 -123l-198 -209l198 -213l-127 -125l-196 213l-213 -213z" />
<glyph unicode="&#xd8;" horiz-adv-x="811" d="M35 -29l74 207q-18 57 -19 111v1057q0 66 25.5 124t68.5 101t101.5 67.5t124.5 24.5q109 0 190 -64l23 64h151l-72 -195q27 -53 27 -122v-1057q0 -66 -25.5 -124.5t-68.5 -101.5t-101.5 -67.5t-123.5 -24.5q-106 0 -197 66l-23 -66h-155zM274 639l256 766q-10 20 -24 35 q-39 39 -96 39q-55 0 -95.5 -39t-40.5 -94v-707zM285 231q18 -35 52 -55t73 -20q57 0 96 37.5t39 95.5v715z" />
<glyph unicode="&#xd9;" horiz-adv-x="731" d="M45 289v1347h184v-1347q0 -57 39 -95t97 -38q53 0 93 37.5t40 95.5v1347h184v-1347q0 -66 -24.5 -124.5t-67.5 -101.5t-101.5 -67.5t-123.5 -24.5q-66 0 -124.5 24.5t-101.5 67.5t-68.5 101.5t-25.5 124.5zM164 1929h155l125 -221h-86z" />
<glyph unicode="&#xda;" horiz-adv-x="731" d="M45 289v1347h184v-1347q0 -57 39 -95t97 -38q53 0 93 37.5t40 95.5v1347h184v-1347q0 -66 -24.5 -124.5t-67.5 -101.5t-101.5 -67.5t-123.5 -24.5q-66 0 -124.5 24.5t-101.5 67.5t-68.5 101.5t-25.5 124.5zM287 1712l125 221h155l-194 -221h-86z" />
<glyph unicode="&#xdb;" horiz-adv-x="731" d="M45 289v1347h184v-1347q0 -57 39 -95t97 -38q53 0 93 37.5t40 95.5v1347h184v-1347q0 -66 -24.5 -124.5t-67.5 -101.5t-101.5 -67.5t-123.5 -24.5q-66 0 -124.5 24.5t-101.5 67.5t-68.5 101.5t-25.5 124.5zM111 1732l184 219h136l188 -219h-143l-111 148l-113 -148h-141z " />
<glyph unicode="&#xdc;" horiz-adv-x="731" d="M45 289v1347h184v-1347q0 -57 39 -95t97 -38q53 0 93 37.5t40 95.5v1347h184v-1347q0 -66 -24.5 -124.5t-67.5 -101.5t-101.5 -67.5t-123.5 -24.5q-66 0 -124.5 24.5t-101.5 67.5t-68.5 101.5t-25.5 124.5zM104 1861q0 47 28.5 76t73.5 29q43 0 74 -29t31 -76 q0 -43 -31 -73.5t-74 -30.5q-45 0 -73.5 30.5t-28.5 73.5zM417 1861q0 47 31 76t72 29q47 0 74.5 -29t27.5 -76q0 -43 -27.5 -73.5t-74.5 -30.5q-41 0 -72 30.5t-31 73.5z" />
<glyph unicode="&#xdd;" horiz-adv-x="731" d="M0 1636h209l153 -587l152 587h199l-264 -862v-774h-185v764zM287 1712l125 221h155l-194 -221h-86z" />
<glyph unicode="&#xde;" horiz-adv-x="696" d="M47 0v1636h182v-331h148q61 0 116.5 -29t98.5 -75t67.5 -104.5t24.5 -119.5v-299q0 -59 -24.5 -118.5t-67.5 -106.5t-98.5 -77t-116.5 -30h-146v-346h-184zM231 530h109q31 0 60.5 14.5t51 39t35 56.5t13.5 69v235q0 76 -42 126t-118 50h-109v-590z" />
<glyph unicode="&#xdf;" horiz-adv-x="724" d="M45 0v1346q0 66 25.5 124t68.5 101t101.5 67.5t124.5 24.5t124 -24.5t101 -67.5t67.5 -101.5t24.5 -123.5v-306q0 -35 -9 -72.5t-24.5 -68.5t-38 -52.5t-49.5 -25.5q27 0 49.5 -17.5t38 -45t24.5 -65.5t9 -77v-297q0 -68 -24.5 -126t-67.5 -101t-101.5 -67.5 t-123.5 -24.5v184q53 0 93 39t40 96v263q0 47 -7.5 75.5t-22.5 45t-41 21.5t-62 5v184q74 0 103.5 25t29.5 111v297q0 55 -40 94t-93 39q-57 0 -96.5 -39t-39.5 -94v-1346h-184z" />
<glyph unicode="&#xe0;" d="M29 283q0 100 24.5 176t64.5 135t90 104t101 84t97.5 72t78.5 68v63q0 55 -27.5 95t-82.5 40q-104 0 -131 -92l-158 107q14 31 41 61.5t63.5 54t82.5 39t102 15.5q66 0 120 -26t93 -69t60.5 -101t21.5 -124v-985h-123l-41 74q-23 -41 -69 -65.5t-126 -24.5 q-51 0 -101 20.5t-90 58t-65.5 93t-25.5 127.5zM213 303q0 -57 39 -96t96 -39q27 0 52.5 13.5t44 35t29.5 49t11 56.5v362q-35 -23 -82 -55.5t-89 -79.5t-71.5 -107.5t-29.5 -138.5zM154 1569h155l125 -221h-86z" />
<glyph unicode="&#xe1;" d="M29 283q0 100 24.5 176t64.5 135t90 104t101 84t97.5 72t78.5 68v63q0 55 -27.5 95t-82.5 40q-104 0 -131 -92l-158 107q14 31 41 61.5t63.5 54t82.5 39t102 15.5q66 0 120 -26t93 -69t60.5 -101t21.5 -124v-985h-123l-41 74q-23 -41 -69 -65.5t-126 -24.5 q-51 0 -101 20.5t-90 58t-65.5 93t-25.5 127.5zM213 303q0 -57 39 -96t96 -39q27 0 52.5 13.5t44 35t29.5 49t11 56.5v362q-35 -23 -82 -55.5t-89 -79.5t-71.5 -107.5t-29.5 -138.5zM279 1352l125 221h155l-194 -221h-86z" />
<glyph unicode="&#xe2;" d="M29 283q0 100 24.5 176t64.5 135t90 104t101 84t97.5 72t78.5 68v63q0 55 -27.5 95t-82.5 40q-104 0 -131 -92l-158 107q14 31 41 61.5t63.5 54t82.5 39t102 15.5q66 0 120 -26t93 -69t60.5 -101t21.5 -124v-985h-123l-41 74q-23 -41 -69 -65.5t-126 -24.5 q-51 0 -101 20.5t-90 58t-65.5 93t-25.5 127.5zM213 303q0 -57 39 -96t96 -39q27 0 52.5 13.5t44 35t29.5 49t11 56.5v362q-35 -23 -82 -55.5t-89 -79.5t-71.5 -107.5t-29.5 -138.5zM102 1372l184 219h136l188 -219h-143l-111 148l-113 -148h-141z" />
<glyph unicode="&#xe3;" d="M29 283q0 100 24.5 176t64.5 135t90 104t101 84t97.5 72t78.5 68v63q0 55 -27.5 95t-82.5 40q-104 0 -131 -92l-158 107q14 31 41 61.5t63.5 54t82.5 39t102 15.5q66 0 120 -26t93 -69t60.5 -101t21.5 -124v-985h-123l-41 74q-23 -41 -69 -65.5t-126 -24.5 q-51 0 -101 20.5t-90 58t-65.5 93t-25.5 127.5zM213 303q0 -57 39 -96t96 -39q27 0 52.5 13.5t44 35t29.5 49t11 56.5v362q-35 -23 -82 -55.5t-89 -79.5t-71.5 -107.5t-29.5 -138.5zM82 1432q35 63 76.5 90.5t95.5 27.5q41 0 66.5 -9t47 -21.5t42 -21.5t51.5 -9q66 0 102 76 l70 -82q-41 -109 -166 -109q-31 0 -55.5 10.5t-47 22.5t-45 22.5t-47.5 10.5q-29 0 -55.5 -16.5t-54.5 -59.5z" />
<glyph unicode="&#xe4;" d="M29 283q0 100 24.5 176t64.5 135t90 104t101 84t97.5 72t78.5 68v63q0 55 -27.5 95t-82.5 40q-104 0 -131 -92l-158 107q14 31 41 61.5t63.5 54t82.5 39t102 15.5q66 0 120 -26t93 -69t60.5 -101t21.5 -124v-985h-123l-41 74q-23 -41 -69 -65.5t-126 -24.5 q-51 0 -101 20.5t-90 58t-65.5 93t-25.5 127.5zM213 303q0 -57 39 -96t96 -39q27 0 52.5 13.5t44 35t29.5 49t11 56.5v362q-35 -23 -82 -55.5t-89 -79.5t-71.5 -107.5t-29.5 -138.5zM98 1501q0 47 28.5 76t73.5 29q43 0 74 -29t31 -76q0 -43 -31 -73.5t-74 -30.5 q-45 0 -73.5 30.5t-28.5 73.5zM411 1501q0 47 31 76t72 29q47 0 74.5 -29t27.5 -76q0 -43 -27.5 -73.5t-74.5 -30.5q-41 0 -72 30.5t-31 73.5z" />
<glyph unicode="&#xe5;" d="M29 283q0 100 24.5 176t64.5 135t90 104t101 84t97.5 72t78.5 68v63q0 55 -27.5 95t-82.5 40q-104 0 -131 -92l-158 107q14 31 41 61.5t63.5 54t82.5 39t102 15.5q66 0 120 -26t93 -69t60.5 -101t21.5 -124v-985h-123l-41 74q-23 -41 -69 -65.5t-126 -24.5 q-51 0 -101 20.5t-90 58t-65.5 93t-25.5 127.5zM213 303q0 -57 39 -96t96 -39q27 0 52.5 13.5t44 35t29.5 49t11 56.5v362q-35 -23 -82 -55.5t-89 -79.5t-71.5 -107.5t-29.5 -138.5zM219 1522q0 61 39 103t96 42q59 0 99 -43t40 -102t-40 -97.5t-99 -38.5q-57 0 -96 38.5 t-39 97.5zM268 1528q0 -41 26.5 -67.5t63.5 -26.5t64.5 26.5t27.5 67.5q0 37 -28.5 64.5t-63.5 27.5t-62.5 -27.5t-27.5 -64.5z" />
<glyph unicode="&#xe6;" horiz-adv-x="1185" d="M45 283q0 100 24.5 176t64.5 135t90 104t100.5 82t96.5 71t79 71v75q-4 51 -30 87t-79 36q-104 0 -131 -92l-158 107q14 31 41 61.5t64 54t83 39t101 15.5q63 0 115.5 -25t91.5 -66q43 41 99.5 66t121.5 25q66 0 124 -24t101 -69t69 -109.5t26 -144.5q0 -127 -26 -214 t-81 -154.5t-141 -122.5t-207 -117v-71q6 -53 40 -88t89 -35q53 0 90 37.5t37 95.5v20l184 62v-82q0 -66 -24.5 -124.5t-66.5 -101.5t-99 -67.5t-121 -24.5q-80 0 -143.5 34t-108.5 91q-27 -39 -81 -75.5t-152 -36.5q-51 0 -101.5 20.5t-90.5 58t-65.5 93t-25.5 127.5z M229 303q0 -57 39 -96t97 -39q27 0 51 13.5t42.5 35t30 49t11.5 56.5v362q-37 -27 -84 -61.5t-88 -80.5t-70 -104.5t-29 -134.5zM684 561q82 45 134 87t83 87t42 96.5t11 116.5q0 96 -40 134t-95 38t-92 -35.5t-43 -87.5v-436z" />
<glyph unicode="&#xe7;" horiz-adv-x="712" d="M41 289v696q0 86 24.5 146.5t67.5 99.5t101.5 56.5t125.5 17.5q63 0 122 -20.5t102 -60.5t68.5 -99.5t25.5 -139.5v-55h-184v55q0 55 -40 95t-94 40q-57 0 -96 -40t-39 -95v-696q0 -57 39 -95t96 -38q53 0 93.5 37.5t40.5 95.5v20l184 62v-82q0 -72 -22.5 -127.5 t-60.5 -95t-90 -63t-110 -30.5v-39q113 0 113 -102q0 -66 -34 -93.5t-105 -27.5q-59 0 -80 15l22 75q14 -8 54 -8q66 0 65 31q0 18 -10 25.5t-39 7.5h-27q-4 0 -12 -1t-20 -3v120q-123 12 -202 96.5t-79 219.5z" />
<glyph unicode="&#xe8;" d="M41 289v696q0 66 24.5 124t67.5 101t101.5 69t125.5 26q63 0 122 -24t102 -69t68.5 -109.5t25.5 -144.5q0 -129 -25.5 -217t-81 -154.5t-141.5 -120.5t-205 -116v-61q0 -57 35 -95t92 -38q55 0 91 37.5t36 95.5v20l185 62v-82q0 -66 -24 -124.5t-66 -101.5t-99 -67.5 t-123 -24.5t-123 24.5t-99 67.5t-65.5 101.5t-23.5 124.5zM225 561q84 41 136.5 84t82 90t40 99.5t10.5 113.5q0 96 -40 134t-94 38q-57 0 -96 -40t-39 -95v-424zM154 1569h155l125 -221h-86z" />
<glyph unicode="&#xe9;" d="M41 289v696q0 66 24.5 124t67.5 101t101.5 69t125.5 26q63 0 122 -24t102 -69t68.5 -109.5t25.5 -144.5q0 -129 -25.5 -217t-81 -154.5t-141.5 -120.5t-205 -116v-61q0 -57 35 -95t92 -38q55 0 91 37.5t36 95.5v20l185 62v-82q0 -66 -24 -124.5t-66 -101.5t-99 -67.5 t-123 -24.5t-123 24.5t-99 67.5t-65.5 101.5t-23.5 124.5zM225 561q84 41 136.5 84t82 90t40 99.5t10.5 113.5q0 96 -40 134t-94 38q-57 0 -96 -40t-39 -95v-424zM279 1352l125 221h155l-194 -221h-86z" />
<glyph unicode="&#xea;" d="M41 289v696q0 66 24.5 124t67.5 101t101.5 69t125.5 26q63 0 122 -24t102 -69t68.5 -109.5t25.5 -144.5q0 -129 -25.5 -217t-81 -154.5t-141.5 -120.5t-205 -116v-61q0 -57 35 -95t92 -38q55 0 91 37.5t36 95.5v20l185 62v-82q0 -66 -24 -124.5t-66 -101.5t-99 -67.5 t-123 -24.5t-123 24.5t-99 67.5t-65.5 101.5t-23.5 124.5zM225 561q84 41 136.5 84t82 90t40 99.5t10.5 113.5q0 96 -40 134t-94 38q-57 0 -96 -40t-39 -95v-424zM102 1372l184 219h136l188 -219h-143l-111 148l-113 -148h-141z" />
<glyph unicode="&#xeb;" d="M41 289v696q0 66 24.5 124t67.5 101t101.5 69t125.5 26q63 0 122 -24t102 -69t68.5 -109.5t25.5 -144.5q0 -129 -25.5 -217t-81 -154.5t-141.5 -120.5t-205 -116v-61q0 -57 35 -95t92 -38q55 0 91 37.5t36 95.5v20l185 62v-82q0 -66 -24 -124.5t-66 -101.5t-99 -67.5 t-123 -24.5t-123 24.5t-99 67.5t-65.5 101.5t-23.5 124.5zM225 561q84 41 136.5 84t82 90t40 99.5t10.5 113.5q0 96 -40 134t-94 38q-57 0 -96 -40t-39 -95v-424zM98 1501q0 47 28.5 76t73.5 29q43 0 74 -29t31 -76q0 -43 -31 -73.5t-74 -30.5q-45 0 -73.5 30.5t-28.5 73.5z M411 1501q0 47 31 76t72 29q47 0 74.5 -29t27.5 -76q0 -43 -27.5 -73.5t-74.5 -30.5q-41 0 -72 30.5t-31 73.5z" />
<glyph unicode="&#xec;" horiz-adv-x="344" d="M106 0v1276h184v-1276h-184zM4 1569h155l125 -221h-86z" />
<glyph unicode="&#xed;" horiz-adv-x="350" d="M47 0v1276h184v-1276h-184zM70 1352l125 221h155l-194 -221h-86z" />
<glyph unicode="&#xee;" horiz-adv-x="471" d="M137 0v1276h184v-1276h-184zM-14 1372l184 219h136l188 -219h-143l-111 148l-113 -148h-141z" />
<glyph unicode="&#xef;" horiz-adv-x="485" d="M141 0v1276h184v-1276h-184zM-16 1501q0 47 28.5 76t73.5 29q43 0 74 -29t31 -76q0 -43 -31 -73.5t-74 -30.5q-45 0 -73.5 30.5t-28.5 73.5zM297 1501q0 47 31 76t72 29q47 0 74.5 -29t27.5 -76q0 -43 -27.5 -73.5t-74.5 -30.5q-41 0 -72 30.5t-31 73.5z" />
<glyph unicode="&#xf0;" horiz-adv-x="720" d="M43 289v637q0 66 19.5 124t56.5 102t90 69.5t121 25.5q76 0 110.5 -19.5t55.5 -39.5v158q0 55 -39 94t-95 39q-49 0 -81 -27l-129 143q39 31 91 49.5t119 18.5q76 0 135.5 -24.5t100.5 -67.5t61.5 -101.5t20.5 -123.5v-1057q0 -66 -24.5 -124.5t-67.5 -101.5 t-101.5 -67.5t-124.5 -24.5t-124 24.5t-101 67.5t-68.5 101.5t-25.5 124.5zM227 289q0 -57 40 -95t95 -38t94.5 37.5t39.5 95.5v626q0 61 -36 104.5t-98 43.5q-55 0 -95 -40t-40 -97v-637z" />
<glyph unicode="&#xf1;" horiz-adv-x="751" d="M47 0v1276h123l41 -59q27 37 71 54t95 17q68 0 127 -25.5t103 -68.5t71 -101.5t27 -123.5v-969h-185v969q0 55 -44 95t-99 40t-100.5 -40t-45.5 -95v-969h-184zM99 1432q35 63 76.5 90.5t95.5 27.5q41 0 66.5 -9t47 -21.5t42 -21.5t51.5 -9q66 0 102 76l70 -82 q-41 -109 -166 -109q-31 0 -55.5 10.5t-47 22.5t-45 22.5t-47.5 10.5q-29 0 -55.5 -16.5t-54.5 -59.5z" />
<glyph unicode="&#xf2;" horiz-adv-x="720" d="M41 289v696q0 66 24.5 124t67.5 101t101.5 69t125.5 26q63 0 122 -26t102 -69t68.5 -101t25.5 -124v-696q0 -66 -25.5 -124.5t-68.5 -101.5t-101.5 -67.5t-122.5 -24.5q-68 0 -126 24.5t-101 67.5t-67.5 101.5t-24.5 124.5zM225 289q0 -57 39 -95t96 -38q53 0 93.5 37.5 t40.5 95.5v696q0 55 -40 95t-94 40q-57 0 -96 -40t-39 -95v-696zM158 1569h155l125 -221h-86z" />
<glyph unicode="&#xf3;" horiz-adv-x="720" d="M41 289v696q0 66 24.5 124t67.5 101t101.5 69t125.5 26q63 0 122 -26t102 -69t68.5 -101t25.5 -124v-696q0 -66 -25.5 -124.5t-68.5 -101.5t-101.5 -67.5t-122.5 -24.5q-68 0 -126 24.5t-101 67.5t-67.5 101.5t-24.5 124.5zM225 289q0 -57 39 -95t96 -38q53 0 93.5 37.5 t40.5 95.5v696q0 55 -40 95t-94 40q-57 0 -96 -40t-39 -95v-696zM283 1352l125 221h155l-194 -221h-86z" />
<glyph unicode="&#xf4;" horiz-adv-x="720" d="M41 289v696q0 66 24.5 124t67.5 101t101.5 69t125.5 26q63 0 122 -26t102 -69t68.5 -101t25.5 -124v-696q0 -66 -25.5 -124.5t-68.5 -101.5t-101.5 -67.5t-122.5 -24.5q-68 0 -126 24.5t-101 67.5t-67.5 101.5t-24.5 124.5zM225 289q0 -57 39 -95t96 -38q53 0 93.5 37.5 t40.5 95.5v696q0 55 -40 95t-94 40q-57 0 -96 -40t-39 -95v-696zM106 1372l184 219h136l188 -219h-143l-111 148l-113 -148h-141z" />
<glyph unicode="&#xf5;" horiz-adv-x="720" d="M41 289v696q0 66 24.5 124t67.5 101t101.5 69t125.5 26q63 0 122 -26t102 -69t68.5 -101t25.5 -124v-696q0 -66 -25.5 -124.5t-68.5 -101.5t-101.5 -67.5t-122.5 -24.5q-68 0 -126 24.5t-101 67.5t-67.5 101.5t-24.5 124.5zM225 289q0 -57 39 -95t96 -38q53 0 93.5 37.5 t40.5 95.5v696q0 55 -40 95t-94 40q-57 0 -96 -40t-39 -95v-696zM84 1432q35 63 76.5 90.5t95.5 27.5q41 0 66.5 -9t47 -21.5t42 -21.5t51.5 -9q66 0 102 76l70 -82q-41 -109 -166 -109q-31 0 -55.5 10.5t-47 22.5t-45 22.5t-47.5 10.5q-29 0 -55.5 -16.5t-54.5 -59.5z" />
<glyph unicode="&#xf6;" horiz-adv-x="720" d="M41 289v696q0 66 24.5 124t67.5 101t101.5 69t125.5 26q63 0 122 -26t102 -69t68.5 -101t25.5 -124v-696q0 -66 -25.5 -124.5t-68.5 -101.5t-101.5 -67.5t-122.5 -24.5q-68 0 -126 24.5t-101 67.5t-67.5 101.5t-24.5 124.5zM225 289q0 -57 39 -95t96 -38q53 0 93.5 37.5 t40.5 95.5v696q0 55 -40 95t-94 40q-57 0 -96 -40t-39 -95v-696zM100 1501q0 47 28.5 76t73.5 29q43 0 74 -29t31 -76q0 -43 -31 -73.5t-74 -30.5q-45 0 -73.5 30.5t-28.5 73.5zM413 1501q0 47 31 76t72 29q47 0 74.5 -29t27.5 -76q0 -43 -27.5 -73.5t-74.5 -30.5 q-41 0 -72 30.5t-31 73.5z" />
<glyph unicode="&#xf7;" horiz-adv-x="563" d="M10 692v154h539v-154h-539zM209 338v172h170v-172h-170zM209 1036v174h170v-174h-170z" />
<glyph unicode="&#xf8;" horiz-adv-x="811" d="M33 -25l84 181q-29 74 -29 133v696q0 66 25.5 124t68.5 101t101.5 69t124.5 26q106 0 190 -62l49 103h127l-92 -197q47 -72 47 -164v-696q0 -66 -25.5 -124.5t-69.5 -101.5t-102.5 -67.5t-123.5 -24.5q-121 0 -209 74l-33 -70h-133zM272 489l242 576q-53 55 -106 55 q-55 0 -95.5 -40t-40.5 -95v-496zM285 229q49 -74 123 -73q57 0 97 37.5t40 95.5v559z" />
<glyph unicode="&#xf9;" horiz-adv-x="722" d="M45 309v967h184v-967q0 -57 37 -95t94 -38q53 0 91 38t38 95v967h185v-1276h-123l-41 61q-18 -25 -57 -47t-111 -22q-59 0 -112.5 21.5t-94.5 62.5t-65.5 99t-24.5 134zM158 1569h155l125 -221h-86z" />
<glyph unicode="&#xfa;" horiz-adv-x="722" d="M45 309v967h184v-967q0 -57 37 -95t94 -38q53 0 91 38t38 95v967h185v-1276h-123l-41 61q-18 -25 -57 -47t-111 -22q-59 0 -112.5 21.5t-94.5 62.5t-65.5 99t-24.5 134zM283 1352l125 221h155l-194 -221h-86z" />
<glyph unicode="&#xfb;" horiz-adv-x="722" d="M45 309v967h184v-967q0 -57 37 -95t94 -38q53 0 91 38t38 95v967h185v-1276h-123l-41 61q-18 -25 -57 -47t-111 -22q-59 0 -112.5 21.5t-94.5 62.5t-65.5 99t-24.5 134zM106 1372l184 219h136l188 -219h-143l-111 148l-113 -148h-141z" />
<glyph unicode="&#xfc;" horiz-adv-x="722" d="M45 309v967h184v-967q0 -57 37 -95t94 -38q53 0 91 38t38 95v967h185v-1276h-123l-41 61q-18 -25 -57 -47t-111 -22q-59 0 -112.5 21.5t-94.5 62.5t-65.5 99t-24.5 134zM102 1501q0 47 28.5 76t73.5 29q43 0 74 -29t31 -76q0 -43 -31 -73.5t-74 -30.5q-45 0 -73.5 30.5 t-28.5 73.5zM415 1501q0 47 31 76t72 29q47 0 74.5 -29t27.5 -76q0 -43 -27.5 -73.5t-74.5 -30.5q-41 0 -72 30.5t-31 73.5z" />
<glyph unicode="&#xfd;" horiz-adv-x="712" d="M25 309v967h184v-967q0 -57 39 -95t96 -38q53 0 93 38t40 95v967h185v-1632h-185v417q-10 -25 -55 -47t-103 -22q-55 0 -108 21.5t-95 62.5t-66.5 99t-24.5 134zM279 1352l125 221h155l-194 -221h-86z" />
<glyph unicode="&#xfe;" horiz-adv-x="737" d="M41 -356v1998l184 62v-463q12 25 59.5 44.5t108.5 19.5q66 0 122 -26t96 -69t62.5 -101t22.5 -124v-696q0 -66 -24.5 -124.5t-67.5 -101.5t-101.5 -67.5t-123.5 -24.5q-53 0 -95 17.5t-59 52.5v-397h-184zM225 289q0 -57 38 -95t116 -38q55 0 94 37.5t39 95.5v696 q0 55 -44 95t-99 40q-57 0 -100.5 -40t-43.5 -95v-696z" />
<glyph unicode="&#xff;" horiz-adv-x="712" d="M25 309v967h184v-967q0 -57 39 -95t96 -38q53 0 93 38t40 95v967h185v-1632h-185v417q-10 -25 -55 -47t-103 -22q-55 0 -108 21.5t-95 62.5t-66.5 99t-24.5 134zM96 1501q0 47 28.5 76t73.5 29q43 0 74 -29t31 -76q0 -43 -31 -73.5t-74 -30.5q-45 0 -73.5 30.5 t-28.5 73.5zM409 1501q0 47 31 76t72 29q47 0 74.5 -29t27.5 -76q0 -43 -27.5 -73.5t-74.5 -30.5q-41 0 -72 30.5t-31 73.5z" />
<glyph unicode="&#x131;" horiz-adv-x="284" d="M47 0v1276h184v-1276h-184z" />
<glyph unicode="&#x141;" horiz-adv-x="630" d="M-20 1051v161l147 50v374h184v-311l271 94v-162l-271 -94v-979h316v-184h-500v1100z" />
<glyph unicode="&#x142;" horiz-adv-x="493" d="M0 1069v162l150 61v350l184 62v-336l160 66v-162l-160 -66v-1206h-184v1130z" />
<glyph unicode="&#x152;" horiz-adv-x="1040" d="M45 289v1057q0 66 25.5 124t68.5 101t101.5 67.5t124.5 24.5q84 0 135 -27h508v-184h-324v-539h209v-184h-209v-545h324v-184h-502q-80 -29 -141 -29q-66 0 -124.5 24.5t-101.5 67.5t-68.5 101.5t-25.5 124.5zM229 289q0 -57 40 -95t96 -38q53 0 92 34.5t43 88.5v1077 q-4 49 -41 84q-37 39 -94 39q-55 0 -95.5 -39t-40.5 -94v-1057z" />
<glyph unicode="&#x153;" horiz-adv-x="1173" d="M43 289v696q0 66 25.5 124t68.5 101t101.5 69t123.5 26q66 0 124.5 -26t101.5 -71q45 45 103.5 71t123.5 26q66 0 124 -24t101 -69t68 -109.5t25 -144.5q0 -127 -26 -214t-80 -154.5t-140 -122.5t-207 -117v-71q4 -53 39 -88t88 -35q55 0 92 37.5t37 95.5v20l184 62v-82 q0 -66 -24.5 -124.5t-66.5 -101.5t-99.5 -67.5t-122.5 -24.5q-133 0 -221 92q-45 -43 -101.5 -67.5t-122.5 -24.5t-124 24.5t-101 67.5t-68.5 101.5t-25.5 124.5zM227 289q0 -57 39 -95t96 -38q53 0 93.5 37.5t40.5 95.5v708q-4 51 -43 87t-91 36q-57 0 -96 -40t-39 -95 v-696zM680 561q82 45 134 87t82 87t41 96.5t11 116.5q0 96 -40 134t-93 38q-55 0 -93 -35.5t-42 -87.5v-436z" />
<glyph unicode="&#x160;" horiz-adv-x="720" d="M35 289v88l184 -41v-47q0 -57 43 -96t98 -39q72 0 108 44t36 111q0 92 -32 176t-81 162t-107.5 152.5t-111.5 148.5q-31 43 -56.5 84t-44 86t-27.5 96.5t-9 114.5q0 150 82 242t235 92q141 0 230.5 -79t89.5 -238v-91l-185 41v50q0 55 -39.5 94t-95.5 39 q-41 0 -67.5 -16.5t-42 -42t-20.5 -58.5t-5 -66q0 -51 21.5 -104t55.5 -105.5t73 -101.5t73 -94q45 -59 89 -121.5t79 -129.5t56.5 -138.5t21.5 -147.5q0 -74 -18.5 -143.5t-57.5 -122.5t-100 -85t-148 -32q-66 0 -125 24.5t-104 67.5t-71.5 100.5t-26.5 125.5zM107 1951 h143l111 -149l113 149h141l-184 -219h-136z" />
<glyph unicode="&#x161;" horiz-adv-x="716" d="M35 289v88l184 -41v-47q0 -59 41 -96t100 -37t98.5 35.5t39.5 97.5q0 47 -13.5 83t-35.5 64q-53 61 -122 112.5t-129.5 112t-102.5 136t-42 186.5q0 68 22.5 127t64.5 102t99.5 68t127.5 25q72 0 127 -25t93 -68t57.5 -101t19.5 -126v-88l-179 41v47q0 53 -34.5 94 t-90.5 41q-59 0 -91.5 -42t-32.5 -97q0 -63 33.5 -113.5t82.5 -96.5t108.5 -92t108.5 -98.5t83 -116t34 -142.5q0 -68 -19.5 -131.5t-60.5 -112.5t-103.5 -78t-148.5 -29q-70 0 -128 23.5t-101 64.5t-66.5 99.5t-23.5 130.5zM104 1591h143l111 -149l113 149h141l-184 -219 h-136z" />
<glyph unicode="&#x178;" horiz-adv-x="731" d="M0 1636h209l153 -587l152 587h199l-264 -862v-774h-185v764zM104 1861q0 47 28.5 76t73.5 29q43 0 74 -29t31 -76q0 -43 -31 -73.5t-74 -30.5q-45 0 -73.5 30.5t-28.5 73.5zM417 1861q0 47 31 76t72 29q47 0 74.5 -29t27.5 -76q0 -43 -27.5 -73.5t-74.5 -30.5 q-41 0 -72 30.5t-31 73.5z" />
<glyph unicode="&#x17d;" horiz-adv-x="712" d="M37 0v143l418 1295h-418v198h637v-143l-424 -1294h424v-199h-637zM102 1951h143l111 -149l113 149h141l-184 -219h-136z" />
<glyph unicode="&#x17e;" horiz-adv-x="684" d="M45 0v143l387 938h-387v195h592v-143l-387 -936h387v-197h-592zM88 1591h143l111 -149l113 149h141l-184 -219h-136z" />
<glyph unicode="&#x2c6;" horiz-adv-x="598" d="M45 1372l184 219h136l188 -219h-143l-111 148l-113 -148h-141z" />
<glyph unicode="&#x2c7;" horiz-adv-x="591" d="M41 1591h143l111 -149l113 149h141l-184 -219h-136z" />
<glyph unicode="&#x2da;" horiz-adv-x="346" d="M37 1522q0 61 39 103t96 42q59 0 99 -43t40 -102t-40 -97.5t-99 -38.5q-57 0 -96 38.5t-39 97.5zM86 1528q0 -41 26.5 -67.5t63.5 -26.5t64.5 26.5t27.5 67.5q0 37 -28.5 64.5t-63.5 27.5t-62.5 -27.5t-27.5 -64.5z" />
<glyph unicode="&#x2dc;" horiz-adv-x="614" d="M29 1432q35 63 76.5 90.5t95.5 27.5q41 0 66.5 -9t47 -21.5t42 -21.5t51.5 -9q66 0 102 76l70 -82q-41 -109 -166 -109q-31 0 -55.5 10.5t-47 22.5t-45 22.5t-47.5 10.5q-29 0 -55.5 -16.5t-54.5 -59.5z" />
<glyph unicode="&#x2013;" horiz-adv-x="874" d="M47 739v162h778v-162h-778z" />
<glyph unicode="&#x2014;" horiz-adv-x="1329" d="M47 739v162h1235v-162h-1235z" />
<glyph unicode="&#x2018;" horiz-adv-x="249" d="M6 1130l156 531h55l-47 -531h-164z" />
<glyph unicode="&#x2019;" horiz-adv-x="249" d="M35 1133l45 530h164l-156 -530h-53z" />
<glyph unicode="&#x201a;" horiz-adv-x="249" d="M35 -362l45 530h164l-156 -530h-53z" />
<glyph unicode="&#x201c;" horiz-adv-x="526" d="M25 1130l155 531h53l-45 -531h-163zM274 1130l156 531h55l-47 -531h-164z" />
<glyph unicode="&#x201d;" horiz-adv-x="526" d="M41 1133l45 530h164l-154 -530h-55zM291 1133l45 530h164l-154 -530h-55z" />
<glyph unicode="&#x201e;" horiz-adv-x="526" d="M41 -362l45 530h164l-154 -530h-55zM291 -362l45 530h164l-154 -530h-55z" />
<glyph unicode="&#x2020;" horiz-adv-x="534" d="M10 1137q0 47 22.5 65.5t61.5 18.5q61 0 129 -43q-35 66 -35 129q0 86 29 159l-33 29q-4 20 -4 31q0 45 27 59h119q27 -14 26 -59q0 -27 -2 -31l-33 -29q14 -35 18.5 -75.5t4.5 -83.5q0 -61 -29 -129q61 43 131 43q35 0 58.5 -18.5t23.5 -65.5q0 -27 -15 -39.5t-34 -12.5 q-4 31 -65 31q-57 0 -111 -41q63 -39 63 -106q0 -129 -5 -269.5t-17 -270.5t-30.5 -238.5t-45.5 -176.5q-27 68 -45 176.5t-29.5 238.5t-16.5 270.5t-5 269.5q0 72 59 106q-20 20 -45.5 30.5t-62.5 10.5q-59 0 -68 -31q-12 0 -26.5 12.5t-14.5 39.5z" />
<glyph unicode="&#x2021;" horiz-adv-x="501" d="M10 174q0 23 12.5 35t26.5 12q10 -29 64 -28q35 0 58.5 10t45.5 28q-57 27 -57 101q0 82 11 167t15 171q-4 88 -15 175t-11 167q0 61 57 100q-47 37 -104 37q-55 0 -64 -27q-14 0 -26.5 12.5t-12.5 32.5q0 47 22.5 63.5t57.5 16.5q53 0 119 -41q-29 68 -29 119q0 43 5 79 t20 71l-31 28q-6 12 -6 29q0 41 27 55h110q25 -12 25 -55q0 -27 -2 -29l-29 -28q10 -31 14 -68t4 -82q0 -31 -4 -59.5t-22 -59.5q59 41 123 41q33 0 55.5 -16.5t22.5 -63.5q0 -20 -14.5 -32.5t-31.5 -12.5q-2 27 -63 27q-31 0 -53.5 -9.5t-46.5 -27.5q57 -37 57 -100 q0 -80 -12.5 -167t-16.5 -175q4 -86 16.5 -171t12.5 -167q0 -63 -57 -101q25 -18 47 -28t53 -10q59 0 63 28q16 0 31 -12t15 -35q0 -43 -23 -60.5t-55 -17.5q-66 0 -123 39q18 -31 22 -60.5t4 -60.5q0 -41 -4 -77.5t-14 -69.5l29 -27q2 -4 2 -26q0 -41 -25 -60h-110 q-27 20 -27 60q0 14 6 26l31 27q-14 35 -19.5 72.5t-5.5 74.5q0 59 29 121q-57 -39 -119 -39q-35 0 -57.5 17.5t-22.5 60.5z" />
<glyph unicode="&#x2022;" horiz-adv-x="608" d="M33 725q0 57 20.5 106.5t57 86t86 58t106.5 21.5q55 0 104.5 -21.5t86 -58t58 -86t21.5 -106.5q0 -55 -21.5 -104.5t-58 -86t-86 -58t-104.5 -21.5q-57 0 -106.5 21.5t-86 58t-57 86t-20.5 104.5z" />
<glyph unicode="&#x2026;" horiz-adv-x="1828" d="M45 117q0 45 27.5 79.5t66.5 34.5q43 0 66.5 -33.5t23.5 -80.5t-23.5 -81t-66.5 -34q-39 0 -66.5 36t-27.5 79zM821 117q0 45 28 79.5t66 34.5q43 0 67 -33.5t24 -80.5t-24 -81t-67 -34q-39 0 -66.5 36t-27.5 79zM1597 117q0 45 28 79.5t67 34.5q43 0 66.5 -33.5 t23.5 -80.5t-23.5 -81t-66.5 -34q-39 0 -67 36t-28 79z" />
<glyph unicode="&#x2039;" horiz-adv-x="397" d="M6 616v136l356 184v-141l-233 -107l233 -110v-136z" />
<glyph unicode="&#x203a;" horiz-adv-x="411" d="M47 442v140l234 110l-234 107v137l356 -176v-133z" />
<glyph unicode="&#x2044;" horiz-adv-x="184" d="M-188 0l473 1565h112l-475 -1565h-110z" />
<glyph unicode="&#x20ac;" horiz-adv-x="675" d="M23 623l14 110h94v127h-108l14 107h94v379q0 66 25.5 124t68.5 101t101.5 67.5t124.5 24.5q86 0 149 -39l-29 -223q-16 35 -49 56.5t-71 21.5q-57 0 -96.5 -39t-39.5 -94v-379h201l-12 -107h-189v-127h172l-14 -110h-158v-334q0 -57 39 -95t97 -38q61 0 100 45l96 -162 q-86 -68 -196 -68q-66 0 -124.5 24.5t-101.5 67.5t-68.5 101.5t-25.5 124.5v334h-108z" />
<glyph unicode="&#x2122;" horiz-adv-x="1232" d="M53 1425v140h416v-140h-137v-716h-139v716h-140zM557 709v856h197l118 -568l117 568h193v-856h-133v563l-107 -563h-143l-109 567v-567h-133z" />
<glyph unicode="&#x2212;" horiz-adv-x="700" d="M49 692v154h600v-154h-600z" />
<glyph unicode="&#xe000;" horiz-adv-x="1275" d="M0 1275h1275v-1275h-1275v1275z" />
</font>
</defs>
</svg>
